<svg xmlns="http://www.w3.org/2000/svg" xmlns:xlink="http://www.w3.org/1999/xlink" id="Layer_1" width="800" height="800" fill="#000" version="1.1" viewBox="0 0 472.615 472.615" xml:space="preserve"><g><g><path d="M236.308,0C105.798,0,0,105.799,0,236.308c0,130.51,105.798,236.308,236.308,236.308 c130.509,0,236.308-105.798,236.308-236.308C472.615,105.799,366.816,0,236.308,0z M50.43,246.154H30.738v-19.692H50.43V246.154z M97.911,83.991l13.922,13.923l-13.922,13.922L83.988,97.914L97.911,83.991z M97.911,388.626l-13.923-13.923l13.923-13.923 l13.922,13.923L97.911,388.626z M246.151,441.876h-19.692v-19.692h19.692V441.876z M246.151,246.154H109.132v-19.692h117.327 V77.64h19.692V246.154z M246.151,50.433h-19.692V30.741h19.692V50.433z M374.699,388.626l-13.924-13.923l13.924-13.923 l13.923,13.923L374.699,388.626z M374.699,111.837l-13.924-13.922l13.924-13.923l13.923,13.923L374.699,111.837z M422.18,246.154 v-19.692h19.692v19.692H422.18z"/></g></g></svg>