<svg xmlns="http://www.w3.org/2000/svg" width="18" height="18" viewBox="0 0 18 18"><defs><style>.a{fill:#e1393f;}.b{fill:#24a0ff;}.c{fill:none;}</style></defs><path class="a" d="M-341.2,812.97" transform="translate(346.689 -795.826)"/><g transform="translate(1.662 0.725)"><path class="b" d="M-363.939,703.761s3.528,2.564,2.657,6.036c-.656,2.617-2.188,3.33-5.108,5.715-1.093.893,1.143,4.5,4,4.733,0,0-2-1.478-2-3.072,0-1.429,1.228-2.59,3.594-3.983,1.186-.7,2.532-1.607,2.893-2.781C-357.018,707.533-361.09,703.457-363.939,703.761Z" transform="translate(366.672 -703.745)"/><path class="b" d="M-341.123,720.847s0-1.259,2.036-2.813,2.7-1.613,3.483-2.623c1.559-2.011.621-5.574-.29-7.343,0,0,4.907,2.846,4.061,6.6-.531,2.357-2.213,3.016-4.169,3.445A8.627,8.627,0,0,0-341.123,720.847Z" transform="translate(344.963 -707.419)"/><path class="b" d="M-338.178,763.081s.321-1.607,3.286-2.572c0,0,.165.821,1.7.571s4.929-1.982,5.054-4.715c0,0,1.622,1.851.023,4.742a12.263,12.263,0,0,1-3.313,3.849s.8-2.322-2.212-2.518A8.868,8.868,0,0,0-338.178,763.081Z" transform="translate(342.461 -748.456)"/></g><rect class="c" width="18" height="18" transform="translate(0)"/></svg>
