<svg xmlns="http://www.w3.org/2000/svg" width="18" height="18" viewBox="0 0 18 18"><defs><style>.a{fill:none;}.b{fill:#9b65ec;}</style></defs><g transform="translate(-378 -902)"><rect class="a" width="18" height="18" transform="translate(378 902)"/><path class="b" d="M-361.422,560.515a12.64,12.64,0,0,0,3.414,4.753c-1.114,2.3-3.005,1.634-3.005,1.634l-1.229-3.787-1.229,3.787s-1.892.668-3.006-1.634a12.642,12.642,0,0,0,3.414-4.753s-5.866,3.764-7.649,3.764A9.923,9.923,0,0,0-368.3,569.2l.182,2.073a4.173,4.173,0,0,0,.613,1.838l1.135,1.825a3.825,3.825,0,0,0,2.623,2.617,9.054,9.054,0,0,1-.841-3.379l2.343.743,2.343-.743a9.055,9.055,0,0,1-.84,3.379,3.826,3.826,0,0,0,2.623-2.617l1.135-1.825a4.173,4.173,0,0,0,.613-1.838l.182-2.073a9.924,9.924,0,0,0,2.413-4.924C-355.556,564.279-361.422,560.515-361.422,560.515Zm-.821,7.266a.978.978,0,0,1,.978.978.978.978,0,0,1-.978.978.978.978,0,0,1-.978-.978A.978.978,0,0,1-362.243,567.781Zm-1.883,3.839a.978.978,0,0,1-.978-.978.978.978,0,0,1,.978-.978.978.978,0,0,1,.978.978A.978.978,0,0,1-364.126,571.62Zm1.883,1.883a.978.978,0,0,1-.978-.978.978.978,0,0,1,.978-.978.978.978,0,0,1,.978.978A.978.978,0,0,1-362.243,573.5Zm1.883-1.883a.978.978,0,0,1-.978-.978.978.978,0,0,1,.978-.978.978.978,0,0,1,.978.978A.978.978,0,0,1-360.36,571.62Z" transform="translate(749.242 341.943)"/></g></svg>