<svg xmlns="http://www.w3.org/2000/svg" width="18" height="18" viewBox="0 0 18 18"><defs><style>.a{fill:#9b65ec;}.b{fill:none;}</style></defs><g transform="translate(-357 -901.979)"><g transform="translate(356.955 901.979)"><g transform="translate(1.046 1.322)"><path class="a" d="M-599.35,611.153l1.335,2,1.335-2-1.335-2Z" transform="translate(606.03 -602.397)"/><path class="a" d="M-623.48,573.169s1.487-5.176-4.689-9.025a4.834,4.834,0,0,1,.621,4.633,5.09,5.09,0,0,0-2.909-.908,5.091,5.091,0,0,0-2.846.865,4.837,4.837,0,0,1,.632-4.609c-6.175,3.849-4.689,9.025-4.689,9.025a2.225,2.225,0,0,1,1.932,1.04,5.116,5.116,0,0,0,4.971,3.909,5.116,5.116,0,0,0,4.913-3.692A2.333,2.333,0,0,1-623.48,573.169Zm-6.976,2.577c-1.335,0-2.852-1.6-2.852-3.343s1.518-2.289,2.852-2.289,2.853.547,2.853,2.289S-629.283,575.746-630.457,575.746Z" transform="translate(638.472 -564.124)"/><path class="a" d="M-562.744,633.938a11.893,11.893,0,0,1-2.048,4.769s2.369.578,4.24-2.844A2.742,2.742,0,0,0-562.744,633.938Z" transform="translate(576.656 -623.466)"/><path class="a" d="M-643.886,635.732c1.871,3.422,4.24,2.844,4.24,2.844a11.891,11.891,0,0,1-2.048-4.769A2.742,2.742,0,0,0-643.886,635.732Z" transform="translate(643.886 -623.355)"/></g><rect class="b" width="18" height="18" transform="translate(0.045)"/></g></g></svg>