<svg xmlns="http://www.w3.org/2000/svg" width="18" height="18" viewBox="0 0 18 18">
  <g id="공허유충" transform="translate(0.427 -0.346)">
    <g id="그룹_15630" data-name="그룹 15630" transform="translate(0.872 2.254)">
      <path id="패스_11690" data-name="패스 11690" d="M4.689.109A4.345,4.345,0,0,0,.324,1.971a3.268,3.268,0,0,0,.917,4A10.206,10.206,0,0,1,4.689.109" transform="matrix(0.995, 0.105, -0.105, 0.995, 0.825, 0.092)" fill="#9b65ec"/>
      <path id="패스_11691" data-name="패스 11691" d="M3.25,16.75a1.719,1.719,0,0,0,.647-.223,7.892,7.892,0,0,1-2.4-2.469A1.82,1.82,0,0,0,.6,15.77a5.077,5.077,0,0,0,.851.591,1.8,1.8,0,0,0-.128.773c1.971,1.676,3.3.757,3.3.757A7.876,7.876,0,0,1,3.25,16.75" transform="translate(-0.159 -3.967)" fill="#9b65ec"/>
      <path id="패스_11692" data-name="패스 11692" d="M0,.109A4.345,4.345,0,0,1,4.365,1.971a3.268,3.268,0,0,1-.917,4A10.206,10.206,0,0,0,0,.109" transform="matrix(0.996, -0.087, 0.087, 0.996, 9.801, 0.537)" fill="#9b65ec"/>
      <path id="패스_11693" data-name="패스 11693" d="M16.126,16.75a1.719,1.719,0,0,1-.647-.223,7.892,7.892,0,0,0,2.4-2.469,1.82,1.82,0,0,1,.9,1.712,5.077,5.077,0,0,1-.851.591,1.8,1.8,0,0,1,.128.773c-1.971,1.676-3.3.757-3.3.757a7.876,7.876,0,0,0,1.37-1.141" transform="translate(-3.986 -3.966)" fill="#9b65ec"/>
      <path id="패스_11694" data-name="패스 11694" d="M8.335,0H8.328C5.566.8,2.652,4,2.652,7.143s3.18,5.118,5.676,5.7h.007c2.5-.579,5.676-2.55,5.676-5.7S11.1.8,8.335,0M9.91,8.942,8.335,8.327H8.328l-1.576.615-1.5-1.1,1.484-1.4a3.5,3.5,0,0,1-.1-.8,2.736,2.736,0,0,1,1.684-2.75h.007a2.736,2.736,0,0,1,1.684,2.75,3.5,3.5,0,0,1-.1.8l1.484,1.4Z" transform="translate(-0.716 0.32)" fill="#9b65ec"/>
    </g>
    <rect id="사각형_9110" data-name="사각형 9110" width="18" height="18" transform="translate(-0.427 0.346)" fill="none" opacity="0.8"/>
  </g>
</svg>
