<svg xmlns="http://www.w3.org/2000/svg" width="18" height="18" viewBox="0 0 18 18"><defs><style>.a{fill:none;}.b{fill:#33aa7d;}</style></defs><g transform="translate(-290 -902)"><rect class="a" width="18" height="18" transform="translate(290 902)"/><path class="b" d="M-635.814,709.412s-4.349,7.424-.493,11.641c3.324,3.635,5.834,2.342,6.825,1.59a5.155,5.155,0,0,0,1.11-5.945c-.774-1.443-3.759-2.619-4.779-.913a3.646,3.646,0,0,1,1.576-1.621s-.474-3.1,4.118-2.489c0,0-2.358,1.081-2.71,2.348,1.408-.88,7.075,2.341,1.478,9.472,0,0,1.8-.237,3.407-2.915,0,0,.137-.028.183.87a3.821,3.821,0,0,0,.66-2.825s2.666-6.573-3.3-9.551c-2.9-1.449-6.758.338-7.513,5.055C-635.25,714.129-636.412,711.1-635.814,709.412Z" transform="translate(929.871 194.864)"/></g></svg>