<svg xmlns="http://www.w3.org/2000/svg" id="Layer_1" width="800" height="800" data-name="Layer 1" viewBox="0 0 64 64"><defs><style>.cls-1{fill:#8f6c56}.cls-2{fill:#fcdd7c}.cls-3{fill:#65c8d0}.cls-4{fill:#838bc5}.cls-5{fill:#ba9bc9}</style></defs><polygon points="43 60.75 21 60.75 24 37.75 40 37.75 43 60.75" class="cls-1"/><path d="M39,23.75a12,12,0,1,0-14,0" class="cls-2"/><path d="M25,31.75v-10a2,2,0,0,1,2-2H37a2,2,0,0,1,2,2v10" class="cls-1"/><polyline points="30 31.75 30 26.75 34 26.75 34 31.75" class="cls-3"/><path d="M32.89,16.45l-1.78-.9L32.38,13H30a1,1,0,0,1-.89-1.45l2-4,1.78.9L31.62,11H34a1,1,0,0,1,.89,1.45Z" class="cls-3"/><rect width="22" height="6" x="21" y="31.75" class="cls-4"/><path d="M43.88,59.75,41,37.62l-2,.26,1,7.87H24l1-7.87-2-.26L20.12,59.75H17v2H47v-2ZM41.32,55.6l-7.23-3.94,6.27-3.42Zm-4.24-7.85L32,50.52l-5.08-2.77Zm-13.44.49,6.27,3.42L22.68,55.6Zm-1.28,9.81L32,52.8l9.64,5.25.22,1.7H22.14Z" class="cls-4"/><path d="M49,35.75H43v-2h5v-11h2v12A1,1,0,0,1,49,35.75Z" class="cls-5"/><path d="M21,35.75H15a1,1,0,0,1-1-1v-12h2v11h5Z" class="cls-5"/></svg>